<svg xmlns:svg="http://www.w3.org/2000/svg" xmlns="http://www.w3.org/2000/svg"
aria-hidden="true" focusable="false" role="img" viewBox="0 0 490 480"
version="1.1">

  <path class="box" d="M 399.32043,30.306151 H 47.320427 c -26.509998,0
  -47.999998,21.49 -47.999998,48 V 430.30615 c 0,26.51 21.49,48 47.999998,48
  H 399.32043 c 26.51,0 48,-21.49 48,-48 V 78.306151 c 0,-26.51 -21.49,-48
  -48,-48 z m 0,32 c 8.823,0 16,7.178 16,16 V 430.30615 c 0,8.822 -7.177,16
  -16,16 H 47.320427 c -8.822,0 -15.999998,-7.178 -15.999998,-16 V 78.306151
  c 0,-8.822 7.177998,-16 15.999998,-16 H 399.32043"/>

  <path class="tick" d="M
  470.11883,141.43058 227.80932,378.65389 c -4.73905,4.6325 -12.33661,4.5468
  -16.96908,-0.1922 L 64.658843,229.22363 c -4.63211,-4.73935
  -4.54684,-12.33659 0.19324,-16.97005 l 22.88332,-22.36904 c 4.73904,-4.63251
  12.336597,-4.54682 16.969067,0.19318 L 220.1264,307.85079 430.97293,101.38598
  c 4.73499,-4.63652 12.33647,-4.54668 16.969,0.19225 l 22.36888,22.88257
  c 4.63303,4.73944 4.52581,12.48398 -0.0578,17.10677 z"/>

</svg>
