<svg xmlns="http://www.w3.org/2000/svg">
  <symbol id="icon-random" viewBox="0 0 128 128">
  <g style="fill:none; fill-opacity:1; stroke:currentColor;
  stroke-width:11.33858299; stroke-linecap:butt; stroke-linejoin:miter;
  stroke-miterlimit:4; stroke-dasharray:none; stroke-dashoffset:0;
  stroke-opacity:1">
    <path d="m 68.871755,81.001429 c 5.458605,5.14839 10.917179,10.296751 17.926866,12.870917 7.009688,2.574166 15.568519,2.574166 24.128349,2.574166"></path>
    <path d="m 3.572093,30.065116 c 8.422569,0 16.844139,0 24.503061,2.604422 7.658923,2.604423 14.557681,7.814387 21.455463,13.023614"></path>
    <path d="M 3.6464846,96.38837 C 15.482028,95.741026 27.317416,95.09369 36.19828,90.399025 45.079145,85.70436 51.008451,76.962034 57.450832,65.898445 63.893213,54.834856 70.849277,41.449387 80.178618,35.050687 89.507959,28.651986 101.21026,29.238809 112.9116,29.825584"></path>
    <path d="M 97.245271,9.7059688 116.39964,30.065116 97.455759,49.277638"></path>
    <path d="M 97.478948,76.087365 116.63333,96.446512 97.689438,115.65903"></path>
  </g>
  </symbol>
</svg>
