<svg xmlns="http://www.w3.org/2000/svg" viewBox="0 0 394 512" preserveAspectRatio="xMidYMid meet">
<path style="fill:#f54f4f;stroke:none;" d="M 158,39.5 V 79 H 118.5 79 V 118.5 158 H 59 39 v 39 39 H 19.5 0 V 374 512 H 39.5 79 V 394 276 H 98.5 118 v 19.5 19.5 h 20 20 v 98.5 98.5 h 39 39 V 413.5 315 h 20 20 V 295.5 276 H 295.5 315 V 394 512 H 354.5 394 V 374 236 H 374.5 355 V 197 158 H 335 315 V 118.5 79 H 275.5 236 V 39.5 0 h -39 -39 z m 78,79 V 158 h 20 20 v 59 59 H 256 236 V 295.5 315 H 197 158 V 295.5 276 h -20 -20 v -59 -59 h 20 20 V 118.5 79 h 39 39 z"></path>
</svg>
