<svg xmlns="http://www.w3.org/2000/svg" class="csl-icon-slovnik" viewBox="0 0 261 261">
  <path fill="currentColor" d="m 0,211.00008 v -50 h 10 10 v -10 -10 H 39.5 59 v 10 10 H 49 39 v 40 40 H 59.5 80 v -50 -50 H 70 60 v -10 -10 h 10.03383 10.03383 l -0.28383,-10.75 L 79.5,99.50008 69.75,99.21387 60,98.92766 V 89.46387 80.00008 H 70.03498 80.06997 L 79.78498,69.75008 79.5,59.50008 69.75,59.21387 60,58.92766 v -9.46379 -9.46379 h 10.03498 10.03499 l -0.28499,-10.25 -0.28498,-10.25 h -20 -20 l -0.14779,9.74917 c -0.0813,5.36205 -0.41879,9.74955 -0.75,9.75 C 38.27099,38.99971 29.45,39.00008 19,39.00008 H 0 v -19.5 -19.5 L 59.75,4e-5 119.5,0 119.24261,130.50004 118.98522,261.00008 H 59.49261 0 Z m 149,-80.5 V 8e-5 l 55.25,-2e-5 55.25,-2e-5 -0.21958,29.50002 c -0.12077,16.22501 -0.45827,29.50002 -0.75,29.50002 -0.29173,0 -9.07091,0 -19.50928,0 h -18.97886 l -0.27114,-19.75 L 219.5,19.50008 204.25,19.22403 189,18.94799 v 30.52604 30.52605 h 10 10 v 9.5 9.5 h -10 -10 v 71 71 h 15.5 15.5 v -60 -60 h -5.5 -5.5 v -10.5 -10.5 h 20 20 v 10.5 10.5 h 5 5 v 70 70 h -55 -55 z m -149,-30 v -20.5 h 10 10 v -10 -10 H 39.5 59 v 9.46379 9.46379 l -9.75,0.28621 -9.75,0.28621 v 10 10 l 9.75,0.28621 9.75,0.28621 v 10.46379 10.46379 H 29.5 0 Z"></path>
</svg>
